RobotoSerifDisplay-RegularWidth1750.ufo
<glyph name="hyphen" format="2">
  <advance width="499"/>
  <unicode hex="002D"/>
  <outline>
    <contour>
      <point x="89" y="332" type="line"/>
      <point x="89" y="274" type="line"/>
      <point x="409" y="274" type="line"/>
      <point x="409" y="332" type="line"/>
    </contour>
  </outline>
</glyph>
<glyph name="C" format="2">
  <advance width="877"/>
  <unicode hex="0043"/>
  <outline>
    <contour>
      <point x="476" y="688" type="curve" smooth="yes"/>
      <point x="639" y="688"/>
      <point x="729" y="616"/>
      <point x="779" y="506" type="curve"/>
      <point x="817" y="506" type="line"/>
      <point x="817" y="710" type="line"/>
      <point x="776" y="710" type="line"/>
      <point x="759" y="580" type="line"/>
      <point x="782" y="565" type="line"/>
      <point x="740" y="656"/>
      <point x="626" y="720"/>
      <point x="476" y="720" type="curve" smooth="yes"/>
      <point x="234" y="720"/>
      <point x="47" y="568"/>
      <point x="47" y="355" type="curve" smooth="yes"/>
      <point x="47" y="138"/>
      <point x="227" y="-10"/>
      <point x="472" y="-10" type="curve" smooth="yes"/>
      <point x="660" y="-10"/>
      <point x="791" y="85"/>
      <point x="833" y="221" type="curve"/>
      <point x="798" y="234" type="line"/>
      <point x="759" y="109"/>
      <point x="647" y="24"/>
      <point x="476" y="24" type="curve" smooth="yes"/>
      <point x="281" y="24"/>
      <point x="152" y="153"/>
      <point x="152" y="355" type="curve" smooth="yes"/>
      <point x="152" y="556"/>
      <point x="287" y="688"/>
    </contour>
  </outline>
</glyph>
<glyph name="I" format="2">
  <advance width="392"/>
  <unicode hex="0049"/>
  <outline>
    <contour>
      <point x="148" y="61" type="line" smooth="yes"/>
      <point x="148" y="33"/>
      <point x="102" y="27"/>
      <point x="49" y="27" type="curve" smooth="yes"/>
      <point x="39" y="27" type="line"/>
      <point x="39" y="0" type="line"/>
      <point x="353" y="0" type="line"/>
      <point x="353" y="27" type="line"/>
      <point x="344" y="27" type="line" smooth="yes"/>
      <point x="291" y="27"/>
      <point x="245" y="33"/>
      <point x="245" y="61" type="curve" smooth="yes"/>
      <point x="245" y="649" type="line" smooth="yes"/>
      <point x="245" y="677"/>
      <point x="291" y="683"/>
      <point x="344" y="683" type="curve" smooth="yes"/>
      <point x="353" y="683" type="line"/>
      <point x="353" y="710" type="line"/>
      <point x="39" y="710" type="line"/>
      <point x="39" y="683" type="line"/>
      <point x="49" y="683" type="line" smooth="yes"/>
      <point x="102" y="683"/>
      <point x="148" y="677"/>
      <point x="148" y="649" type="curve" smooth="yes"/>
    </contour>
  </outline>
</glyph>
<glyph name="Q" format="2">
  <advance width="959"/>
  <unicode hex="0051"/>
  <outline>
    <contour>
      <point x="464" y="-4" type="curve"/>
      <point x="457" y="-128"/>
      <point x="553" y="-184"/>
      <point x="708" y="-184" type="curve" smooth="yes"/>
      <point x="777" y="-184"/>
      <point x="849" y="-174"/>
      <point x="879" y="-164" type="curve"/>
      <point x="879" y="-81" type="line"/>
      <point x="855" y="-86"/>
      <point x="776" y="-111"/>
      <point x="687" y="-111" type="curve" smooth="yes"/>
      <point x="569" y="-111"/>
      <point x="500" y="-89"/>
      <point x="504" y="8" type="curve"/>
      <point x="494" y="7"/>
      <point x="475" y="2"/>
    </contour>
    <contour>
      <point x="479" y="-10" type="curve" smooth="yes"/>
      <point x="721" y="-10"/>
      <point x="912" y="139"/>
      <point x="912" y="355" type="curve" smooth="yes"/>
      <point x="912" y="572"/>
      <point x="721" y="720"/>
      <point x="479" y="720" type="curve" smooth="yes"/>
      <point x="237" y="720"/>
      <point x="47" y="572"/>
      <point x="47" y="355" type="curve" smooth="yes"/>
      <point x="47" y="139"/>
      <point x="237" y="-10"/>
    </contour>
    <contour>
      <point x="479" y="22" type="curve" smooth="yes"/>
      <point x="289" y="22"/>
      <point x="152" y="151"/>
      <point x="152" y="355" type="curve" smooth="yes"/>
      <point x="152" y="559"/>
      <point x="289" y="688"/>
      <point x="479" y="688" type="curve" smooth="yes"/>
      <point x="671" y="688"/>
      <point x="807" y="559"/>
      <point x="807" y="355" type="curve" smooth="yes"/>
      <point x="807" y="151"/>
      <point x="671" y="22"/>
    </contour>
  </outline>
</glyph>
<glyph name="W" format="2">
  <advance width="1210"/>
  <unicode hex="0057"/>
  <outline>
    <contour>
      <point x="7" y="710" type="line"/>
      <point x="7" y="683" type="line"/>
      <point x="13" y="683" type="line" smooth="yes"/>
      <point x="51" y="683"/>
      <point x="80" y="680"/>
      <point x="88" y="652" type="curve" smooth="yes"/>
      <point x="299" y="0" type="line"/>
      <point x="378" y="0" type="line"/>
      <point x="617" y="628" type="line"/>
      <point x="598" y="628" type="line"/>
      <point x="824" y="0" type="line"/>
      <point x="903" y="0" type="line"/>
      <point x="1102" y="618" type="line" smooth="yes"/>
      <point x="1117" y="665"/>
      <point x="1155" y="683"/>
      <point x="1194" y="683" type="curve" smooth="yes"/>
      <point x="1203" y="683" type="line"/>
      <point x="1203" y="710" type="line"/>
      <point x="946" y="710" type="line"/>
      <point x="946" y="683" type="line"/>
      <point x="981" y="683" type="line" smooth="yes"/>
      <point x="1045" y="683"/>
      <point x="1072" y="671"/>
      <point x="1072" y="659" type="curve"/>
      <point x="875" y="46" type="line"/>
      <point x="896" y="46" type="line"/>
      <point x="660" y="710" type="line"/>
      <point x="604" y="710" type="line"/>
      <point x="352" y="42" type="line"/>
      <point x="373" y="42" type="line"/>
      <point x="177" y="673" type="line"/>
      <point x="177" y="680"/>
      <point x="231" y="683"/>
      <point x="280" y="683" type="curve" smooth="yes"/>
      <point x="305" y="683" type="line"/>
      <point x="305" y="710" type="line"/>
    </contour>
  </outline>
</glyph>
<glyph name="b" format="2">
  <advance width="763"/>
  <unicode hex="0062"/>
  <outline>
    <contour>
      <point x="420" y="-10" type="curve" smooth="yes"/>
      <point x="599" y="-10"/>
      <point x="723" y="102"/>
      <point x="723" y="263" type="curve" smooth="yes"/>
      <point x="723" y="422"/>
      <point x="600" y="528"/>
      <point x="433" y="528" type="curve" smooth="yes"/>
      <point x="323" y="528"/>
      <point x="250" y="487"/>
      <point x="187" y="407" type="curve"/>
      <point x="187" y="364" type="line"/>
      <point x="243" y="446"/>
      <point x="313" y="495"/>
      <point x="419" y="495" type="curve" smooth="yes"/>
      <point x="551" y="495"/>
      <point x="623" y="404"/>
      <point x="623" y="263" type="curve" smooth="yes"/>
      <point x="623" y="118"/>
      <point x="549" y="23"/>
      <point x="409" y="23" type="curve" smooth="yes"/>
      <point x="313" y="23"/>
      <point x="241" y="62"/>
      <point x="187" y="143" type="curve"/>
      <point x="187" y="98" type="line"/>
      <point x="246" y="23"/>
      <point x="318" y="-10"/>
    </contour>
    <contour>
      <point x="109" y="681" type="curve" smooth="yes"/>
      <point x="109" y="-6" type="line"/>
      <point x="145" y="-6" type="line"/>
      <point x="198" y="108" type="line"/>
      <point x="203" y="105" type="line"/>
      <point x="203" y="750" type="line"/>
      <point x="6" y="750" type="line"/>
      <point x="6" y="724" type="line"/>
      <point x="22" y="722" type="line" smooth="yes"/>
      <point x="85" y="713"/>
      <point x="109" y="707"/>
    </contour>
  </outline>
</glyph>
<glyph name="c" format="2">
  <advance width="646"/>
  <unicode hex="0063"/>
  <outline>
    <contour>
      <point x="368" y="19" type="curve" smooth="yes"/>
      <point x="223" y="19"/>
      <point x="140" y="114"/>
      <point x="140" y="260" type="curve" smooth="yes"/>
      <point x="140" y="402"/>
      <point x="220" y="499"/>
      <point x="376" y="499" type="curve" smooth="yes"/>
      <point x="467" y="499"/>
      <point x="528" y="469"/>
      <point x="556" y="433" type="curve"/>
      <point x="563" y="452"/>
      <point x="530" y="485"/>
      <point x="510" y="484" type="curve"/>
      <point x="510" y="377" type="line"/>
      <point x="600" y="377" type="line"/>
      <point x="600" y="471" type="line"/>
      <point x="565" y="497"/>
      <point x="486" y="528"/>
      <point x="376" y="528" type="curve" smooth="yes"/>
      <point x="176" y="528"/>
      <point x="40" y="417"/>
      <point x="40" y="260" type="curve" smooth="yes"/>
      <point x="40" y="100"/>
      <point x="179" y="-10"/>
      <point x="362" y="-10" type="curve" smooth="yes"/>
      <point x="483" y="-10"/>
      <point x="566" y="36"/>
      <point x="613" y="108" type="curve"/>
      <point x="583" y="127" type="line"/>
      <point x="546" y="67"/>
      <point x="480" y="19"/>
    </contour>
  </outline>
</glyph>
<glyph name="q" format="2">
  <advance width="754"/>
  <unicode hex="0071"/>
  <outline>
    <contour>
      <point x="444" y="-223" type="line"/>
      <point x="753" y="-223" type="line"/>
      <point x="753" y="-196" type="line"/>
      <point x="751" y="-196" type="line"/>
      <point x="696" y="-196"/>
      <point x="654" y="-190"/>
      <point x="654" y="-163" type="curve" smooth="yes"/>
      <point x="654" y="524" type="line"/>
      <point x="617" y="524" type="line"/>
      <point x="565" y="411" type="line"/>
      <point x="560" y="408" type="line"/>
      <point x="560" y="-186" type="line" smooth="yes"/>
      <point x="560" y="-193"/>
      <point x="502" y="-196"/>
      <point x="469" y="-196" type="curve" smooth="yes"/>
      <point x="444" y="-196" type="line"/>
    </contour>
    <contour>
      <point x="330" y="-10" type="curve" smooth="yes"/>
      <point x="441" y="-10"/>
      <point x="512" y="31"/>
      <point x="576" y="112" type="curve"/>
      <point x="576" y="165" type="line"/>
      <point x="517" y="76"/>
      <point x="447" y="23"/>
      <point x="343" y="23" type="curve" smooth="yes"/>
      <point x="213" y="23"/>
      <point x="140" y="115"/>
      <point x="140" y="255" type="curve" smooth="yes"/>
      <point x="140" y="399"/>
      <point x="216" y="495"/>
      <point x="354" y="495" type="curve" smooth="yes"/>
      <point x="448" y="495"/>
      <point x="522" y="453"/>
      <point x="576" y="364" type="curve"/>
      <point x="576" y="420" type="line"/>
      <point x="517" y="494"/>
      <point x="446" y="528"/>
      <point x="344" y="528" type="curve" smooth="yes"/>
      <point x="168" y="528"/>
      <point x="40" y="415"/>
      <point x="40" y="255" type="curve" smooth="yes"/>
      <point x="40" y="97"/>
      <point x="164" y="-10"/>
    </contour>
  </outline>
</glyph>
<glyph name="ordfeminine" format="2">
  <advance width="586"/>
  <unicode hex="00AA"/>
  <outline>
    <contour>
      <point x="391" y="554" type="line"/>
      <point x="165" y="536"/>
      <point x="60" y="501"/>
      <point x="60" y="407" type="curve" smooth="yes"/>
      <point x="60" y="347"/>
      <point x="122" y="310"/>
      <point x="212" y="310" type="curve" smooth="yes"/>
      <point x="299" y="310"/>
      <point x="360" y="355"/>
      <point x="389" y="412" type="curve"/>
      <point x="420" y="444"/>
      <point x="381" y="436"/>
      <point x="375" y="436" type="curve"/>
      <point x="347" y="386"/>
      <point x="303" y="348"/>
      <point x="239" y="348" type="curve" smooth="yes"/>
      <point x="191" y="348"/>
      <point x="153" y="369"/>
      <point x="153" y="416" type="curve" smooth="yes"/>
      <point x="153" y="484"/>
      <point x="220" y="520"/>
      <point x="390" y="528" type="curve"/>
    </contour>
    <contour>
      <point x="375" y="320" type="line"/>
      <point x="536" y="320" type="line"/>
      <point x="536" y="347" type="line"/>
      <point x="536" y="347" type="line"/>
      <point x="492" y="347"/>
      <point x="456" y="351"/>
      <point x="456" y="376" type="curve" smooth="yes"/>
      <point x="456" y="596" type="line" smooth="yes"/>
      <point x="456" y="690"/>
      <point x="368" y="720"/>
      <point x="274" y="720" type="curve" smooth="yes"/>
      <point x="190" y="720"/>
      <point x="124" y="697"/>
      <point x="90" y="667" type="curve"/>
      <point x="90" y="606" type="line"/>
      <point x="166" y="606" type="line"/>
      <point x="166" y="692" type="line"/>
      <point x="151" y="689"/>
      <point x="135" y="672"/>
      <point x="137" y="650" type="curve"/>
      <point x="156" y="675"/>
      <point x="207" y="692"/>
      <point x="262" y="692" type="curve" smooth="yes"/>
      <point x="333" y="692"/>
      <point x="368" y="669"/>
      <point x="368" y="607" type="curve" smooth="yes"/>
      <point x="368" y="401" type="line"/>
      <point x="375" y="399" type="line"/>
    </contour>
  </outline>
</glyph>
<glyph name="Eth" format="2">
  <advance width="929"/>
  <unicode hex="00D0"/>
  <outline>
    <contour>
      <point x="43" y="375" type="line"/>
      <point x="43" y="343" type="line"/>
      <point x="517" y="343" type="line"/>
      <point x="517" y="375" type="line"/>
    </contour>
    <component base="D" xOffset="63"/>
  </outline>
</glyph>
<glyph name="Hbar" format="2">
  <advance width="996"/>
  <unicode hex="0126"/>
  <outline>
    <contour>
      <point x="43" y="543" type="line"/>
      <point x="43" y="512" type="line"/>
      <point x="939" y="512" type="line"/>
      <point x="939" y="543" type="line"/>
    </contour>
    <contour>
      <point x="221" y="383" type="line"/>
      <point x="221" y="349" type="line"/>
      <point x="769" y="349" type="line"/>
      <point x="769" y="383" type="line"/>
    </contour>
    <contour>
      <point x="43" y="0" type="line"/>
      <point x="365" y="0" type="line"/>
      <point x="365" y="30" type="line"/>
      <point x="354" y="30" type="line" smooth="yes"/>
      <point x="309" y="30"/>
      <point x="252" y="33"/>
      <point x="252" y="40" type="curve" smooth="yes"/>
      <point x="252" y="670" type="line" smooth="yes"/>
      <point x="252" y="677"/>
      <point x="309" y="680"/>
      <point x="354" y="680" type="curve" smooth="yes"/>
      <point x="365" y="680" type="line"/>
      <point x="365" y="710" type="line"/>
      <point x="43" y="710" type="line"/>
      <point x="43" y="680" type="line"/>
      <point x="53" y="680" type="line" smooth="yes"/>
      <point x="108" y="680"/>
      <point x="155" y="673"/>
      <point x="155" y="644" type="curve" smooth="yes"/>
      <point x="155" y="66" type="line" smooth="yes"/>
      <point x="155" y="37"/>
      <point x="109" y="30"/>
      <point x="53" y="30" type="curve" smooth="yes"/>
      <point x="43" y="30" type="line"/>
    </contour>
    <contour>
      <point x="618" y="0" type="line"/>
      <point x="939" y="0" type="line"/>
      <point x="939" y="30" type="line"/>
      <point x="930" y="30" type="line" smooth="yes"/>
      <point x="873" y="30"/>
      <point x="827" y="37"/>
      <point x="827" y="66" type="curve" smooth="yes"/>
      <point x="827" y="644" type="line" smooth="yes"/>
      <point x="827" y="673"/>
      <point x="874" y="680"/>
      <point x="930" y="680" type="curve" smooth="yes"/>
      <point x="939" y="680" type="line"/>
      <point x="939" y="710" type="line"/>
      <point x="618" y="710" type="line"/>
      <point x="618" y="680" type="line"/>
      <point x="629" y="680" type="line" smooth="yes"/>
      <point x="673" y="680"/>
      <point x="730" y="677"/>
      <point x="730" y="670" type="curve" smooth="yes"/>
      <point x="730" y="40" type="line" smooth="yes"/>
      <point x="730" y="33"/>
      <point x="673" y="30"/>
      <point x="629" y="30" type="curve" smooth="yes"/>
      <point x="618" y="30" type="line"/>
    </contour>
  </outline>
</glyph>
<glyph name="dotlessi" format="2">
  <advance width="360"/>
  <unicode hex="0131"/>
  <anchor x="197" y="529" name="top"/>
  <outline>
    <contour>
      <point x="232" y="516" type="line"/>
      <point x="37" y="516" type="line"/>
      <point x="37" y="487" type="line"/>
      <point x="50" y="485" type="line" smooth="yes"/>
      <point x="110" y="477"/>
      <point x="138" y="469"/>
      <point x="138" y="440" type="curve" smooth="yes"/>
      <point x="138" y="65" type="line" smooth="yes"/>
      <point x="138" y="36"/>
      <point x="96" y="29"/>
      <point x="39" y="29" type="curve" smooth="yes"/>
      <point x="37" y="29" type="line"/>
      <point x="37" y="0" type="line"/>
      <point x="333" y="0" type="line"/>
      <point x="333" y="29" type="line"/>
      <point x="330" y="29" type="line" smooth="yes"/>
      <point x="273" y="29"/>
      <point x="232" y="36"/>
      <point x="232" y="65" type="curve" smooth="yes"/>
    </contour>
  </outline>
</glyph>
<glyph name="uhorn" format="2">
  <advance width="756"/>
  <unicode hex="01B0"/>
  <anchor x="353" y="545.0" name="top"/>
  <outline>
    <contour>
      <point x="213" y="516" type="line"/>
      <point x="17" y="516" type="line"/>
      <point x="17" y="487" type="line"/>
      <point x="29" y="485" type="line" smooth="yes"/>
      <point x="90" y="479"/>
      <point x="120" y="471"/>
      <point x="120" y="442" type="curve" smooth="yes"/>
      <point x="120" y="151" type="line" smooth="yes"/>
      <point x="120" y="43"/>
      <point x="192" y="-10"/>
      <point x="311" y="-10" type="curve" smooth="yes"/>
      <point x="430" y="-10"/>
      <point x="502" y="45"/>
      <point x="576" y="140" type="curve"/>
      <point x="557" y="165" type="line"/>
      <point x="494" y="78"/>
      <point x="425" y="26"/>
      <point x="334" y="26" type="curve" smooth="yes"/>
      <point x="251" y="26"/>
      <point x="213" y="62"/>
      <point x="213" y="153" type="curve"/>
    </contour>
    <contour>
      <point x="626" y="516" type="line"/>
      <point x="597" y="514"/>
      <point x="569" y="495"/>
      <point x="572" y="494" type="curve"/>
      <point x="731" y="499"/>
      <point x="789" y="558"/>
      <point x="791" y="689" type="curve"/>
      <point x="706" y="689" type="line"/>
      <point x="702" y="549"/>
      <point x="666" y="516"/>
      <point x="480" y="516" type="curve" smooth="yes"/>
      <point x="415" y="516" type="line"/>
      <point x="415" y="487" type="line"/>
      <point x="435" y="485" type="line"/>
      <point x="500" y="482"/>
      <point x="532" y="471"/>
      <point x="532" y="442" type="curve" smooth="yes"/>
      <point x="532" y="112" type="line"/>
      <point x="538" y="104" type="line"/>
      <point x="538" y="0" type="line"/>
      <point x="729" y="0" type="line"/>
      <point x="729" y="29" type="line"/>
      <point x="725" y="29" type="line" smooth="yes"/>
      <point x="667" y="29"/>
      <point x="626" y="36"/>
      <point x="626" y="65" type="curve" smooth="yes"/>
    </contour>
  </outline>
</glyph>
<glyph name="verticallinelowmod" format="2">
  <advance width="620"/>
  <unicode hex="02CC"/>
  <outline>
    <contour>
      <point x="277" y="-250" type="line"/>
      <point x="342" y="-250" type="line"/>
      <point x="342" y="-47" type="line"/>
      <point x="277" y="-47" type="line"/>
    </contour>
  </outline>
</glyph>
<glyph name="kip" format="2">
  <advance width="695"/>
  <unicode hex="20AD"/>
  <outline>
    <contour>
      <point x="18" y="389" type="line"/>
      <point x="18" y="358" type="line"/>
      <point x="612" y="358" type="line"/>
      <point x="612" y="389" type="line"/>
    </contour>
    <contour>
      <point x="18" y="0" type="line"/>
      <point x="308" y="0" type="line" smooth="yes"/>
      <point x="308" y="30" type="line" smooth="yes"/>
      <point x="297" y="30" type="line" smooth="yes"/>
      <point x="256" y="30"/>
      <point x="207" y="33"/>
      <point x="207" y="40" type="curve" smooth="yes"/>
      <point x="207" y="670" type="line" smooth="yes"/>
      <point x="207" y="677"/>
      <point x="256" y="680"/>
      <point x="297" y="680" type="curve" smooth="yes"/>
      <point x="308" y="680" type="line" smooth="yes"/>
      <point x="308" y="710" type="line" smooth="yes"/>
      <point x="18" y="710" type="line"/>
      <point x="18" y="680" type="line"/>
      <point x="32" y="680" type="line" smooth="yes"/>
      <point x="79" y="680"/>
      <point x="112" y="673"/>
      <point x="112" y="644" type="curve" smooth="yes"/>
      <point x="112" y="66" type="line" smooth="yes"/>
      <point x="112" y="37"/>
      <point x="79" y="30"/>
      <point x="32" y="30" type="curve" smooth="yes"/>
      <point x="18" y="30" type="line"/>
    </contour>
    <contour>
      <point x="687" y="30" type="line"/>
      <point x="678" y="30" type="line" smooth="yes"/>
      <point x="639" y="30"/>
      <point x="615" y="35"/>
      <point x="593" y="63" type="curve" smooth="yes"/>
      <point x="350" y="375" type="line"/>
      <point x="319" y="362" type="line"/>
      <point x="562" y="649" type="line" smooth="yes"/>
      <point x="582" y="672"/>
      <point x="608" y="680"/>
      <point x="641" y="680" type="curve" smooth="yes"/>
      <point x="655" y="680" type="line"/>
      <point x="655" y="710" type="line"/>
      <point x="424" y="710" type="line"/>
      <point x="424" y="680" type="line"/>
      <point x="443" y="680" type="line" smooth="yes"/>
      <point x="480" y="680"/>
      <point x="526" y="675"/>
      <point x="528" y="668" type="curve"/>
      <point x="274" y="368" type="line"/>
      <point x="250" y="375" type="line"/>
      <point x="499" y="40" type="line"/>
      <point x="499" y="33"/>
      <point x="450" y="30"/>
      <point x="412" y="30" type="curve" smooth="yes"/>
      <point x="400" y="30" type="line"/>
      <point x="400" y="0" type="line"/>
      <point x="687" y="0" type="line"/>
    </contour>
  </outline>
</glyph>
<glyph name="acute.uc" format="2">
  <advance width="619"/>
  <anchor x="253" y="727.0" name="_top"/>
  <outline>
    <contour>
      <point x="306" y="871" type="curve" smooth="yes"/>
      <point x="220" y="779" type="line"/>
      <point x="220" y="766" type="line"/>
      <point x="240" y="766" type="line"/>
      <point x="358" y="816" type="line" smooth="yes"/>
      <point x="400" y="835"/>
      <point x="426" y="855"/>
      <point x="426" y="878" type="curve" smooth="yes"/>
      <point x="426" y="897"/>
      <point x="408" y="914"/>
      <point x="380" y="914" type="curve" smooth="yes"/>
      <point x="351" y="914"/>
      <point x="332" y="899"/>
    </contour>
  </outline>
</glyph>
<glyph name="blacktriangle" format="2">
  <advance width="712"/>
  <outline>
    <contour>
      <point x="158" y="40" type="line"/>
      <point x="629" y="307" type="line"/>
      <point x="158" y="575" type="line"/>
    </contour>
  </outline>
</glyph>
<glyph name="eight.den" format="2">
  <advance width="396"/>
  <outline>
    <contour>
      <point x="198" y="188" type="curve" smooth="yes"/>
      <point x="100" y="188"/>
      <point x="28" y="154"/>
      <point x="28" y="94" type="curve" smooth="yes"/>
      <point x="28" y="36"/>
      <point x="97" y="-6"/>
      <point x="198" y="-6" type="curve" smooth="yes"/>
      <point x="299" y="-6"/>
      <point x="369" y="36"/>
      <point x="369" y="94" type="curve" smooth="yes"/>
      <point x="369" y="154"/>
      <point x="296" y="188"/>
    </contour>
    <contour>
      <point x="198" y="168" type="curve" smooth="yes"/>
      <point x="251" y="168"/>
      <point x="285" y="143"/>
      <point x="285" y="97" type="curve" smooth="yes"/>
      <point x="285" y="48"/>
      <point x="250" y="20"/>
      <point x="198" y="20" type="curve" smooth="yes"/>
      <point x="147" y="20"/>
      <point x="111" y="48"/>
      <point x="111" y="97" type="curve" smooth="yes"/>
      <point x="111" y="143"/>
      <point x="145" y="168"/>
    </contour>
    <contour>
      <point x="198" y="346" type="curve" smooth="yes"/>
      <point x="110" y="346"/>
      <point x="50" y="310"/>
      <point x="50" y="259" type="curve" smooth="yes"/>
      <point x="50" y="207"/>
      <point x="110" y="176"/>
      <point x="198" y="176" type="curve" smooth="yes"/>
      <point x="285" y="176"/>
      <point x="346" y="207"/>
      <point x="346" y="259" type="curve" smooth="yes"/>
      <point x="346" y="310"/>
      <point x="285" y="346"/>
    </contour>
    <contour>
      <point x="198" y="193" type="curve" smooth="yes"/>
      <point x="155" y="193"/>
      <point x="127" y="214"/>
      <point x="127" y="253" type="curve" smooth="yes"/>
      <point x="127" y="296"/>
      <point x="155" y="321"/>
      <point x="198" y="321" type="curve" smooth="yes"/>
      <point x="240" y="321"/>
      <point x="269" y="296"/>
      <point x="269" y="253" type="curve" smooth="yes"/>
      <point x="269" y="214"/>
      <point x="240" y="193"/>
    </contour>
  </outline>
</glyph>
<glyph name="f.alt" format="2">
  <advance width="454"/>
  <outline>
    <contour>
      <point x="28" y="518" type="line"/>
      <point x="28" y="489" type="line"/>
      <point x="441" y="489" type="line"/>
      <point x="441" y="518" type="line"/>
    </contour>
    <contour>
      <point x="378" y="0" type="line"/>
      <point x="378" y="27" type="line"/>
      <point x="368" y="27" type="line" smooth="yes"/>
      <point x="299" y="27"/>
      <point x="246" y="30"/>
      <point x="246" y="48" type="curve" smooth="yes"/>
      <point x="246" y="584" type="line" smooth="yes"/>
      <point x="246" y="685"/>
      <point x="292" y="728"/>
      <point x="382" y="728" type="curve" smooth="yes"/>
      <point x="432" y="728"/>
      <point x="472" y="715"/>
      <point x="503" y="684" type="curve"/>
      <point x="512" y="696"/>
      <point x="485" y="732"/>
      <point x="459" y="731" type="curve"/>
      <point x="459" y="640" type="line"/>
      <point x="543" y="640" type="line"/>
      <point x="543" y="726" type="line"/>
      <point x="521" y="739"/>
      <point x="464" y="758"/>
      <point x="382" y="758" type="curve" smooth="yes"/>
      <point x="244" y="758"/>
      <point x="152" y="696"/>
      <point x="152" y="583" type="curve" smooth="yes"/>
      <point x="152" y="61" type="line" smooth="yes"/>
      <point x="152" y="33"/>
      <point x="112" y="27"/>
      <point x="44" y="27" type="curve" smooth="yes"/>
      <point x="30" y="27" type="line"/>
      <point x="30" y="0" type="line"/>
    </contour>
  </outline>
</glyph>
<glyph name="four.old" format="2">
  <advance width="695"/>
  <outline>
    <contour>
      <point x="39" y="51" type="line"/>
      <point x="676" y="51" type="line"/>
      <point x="676" y="112" type="line"/>
      <point x="72" y="112" type="line"/>
      <point x="72" y="79" type="line"/>
      <point x="456" y="520" type="line"/>
      <point x="483" y="548" type="line"/>
      <point x="427" y="548" type="line"/>
      <point x="39" y="101" type="line"/>
    </contour>
    <contour>
      <point x="529" y="-136" type="line"/>
      <point x="529" y="548" type="line"/>
      <point x="452" y="548" type="line"/>
      <point x="433" y="519" type="line"/>
      <point x="433" y="-136" type="line"/>
    </contour>
  </outline>
</glyph>
<glyph name="g.alt" format="2">
  <advance width="744"/>
  <outline>
    <contour>
      <point x="563" y="12" type="line" smooth="yes"/>
      <point x="563" y="-134"/>
      <point x="475" y="-197"/>
      <point x="341" y="-197" type="curve" smooth="yes"/>
      <point x="239" y="-197"/>
      <point x="159" y="-160"/>
      <point x="129" y="-110" type="curve"/>
      <point x="122" y="-151"/>
      <point x="142" y="-173"/>
      <point x="172" y="-175" type="curve"/>
      <point x="172" y="-71" type="line"/>
      <point x="73" y="-71" type="line"/>
      <point x="73" y="-145" type="line"/>
      <point x="113" y="-188"/>
      <point x="220" y="-230"/>
      <point x="341" y="-230" type="curve" smooth="yes"/>
      <point x="535" y="-230"/>
      <point x="657" y="-141"/>
      <point x="657" y="14" type="curve" smooth="yes"/>
      <point x="657" y="525" type="line"/>
      <point x="620" y="525" type="line"/>
      <point x="569" y="413" type="line"/>
      <point x="563" y="403" type="line"/>
    </contour>
    <contour>
      <point x="142" y="261" type="curve" smooth="yes"/>
      <point x="142" y="401"/>
      <point x="217" y="494"/>
      <point x="348" y="494" type="curve" smooth="yes"/>
      <point x="456" y="494"/>
      <point x="534" y="444"/>
      <point x="591" y="347" type="curve"/>
      <point x="622" y="357" type="line"/>
      <point x="549" y="473"/>
      <point x="471" y="528"/>
      <point x="346" y="528" type="curve" smooth="yes"/>
      <point x="166" y="528"/>
      <point x="42" y="418"/>
      <point x="42" y="261" type="curve" smooth="yes"/>
      <point x="42" y="105"/>
      <point x="161" y="-1"/>
      <point x="335" y="-1" type="curve" smooth="yes"/>
      <point x="465" y="-1"/>
      <point x="540" y="64"/>
      <point x="622" y="182" type="curve"/>
      <point x="594" y="195" type="line"/>
      <point x="530" y="97"/>
      <point x="453" y="33"/>
      <point x="342" y="33" type="curve" smooth="yes"/>
      <point x="215" y="33"/>
      <point x="142" y="123"/>
    </contour>
  </outline>
</glyph>
<glyph name="minus.sub" format="2">
  <advance width="493"/>
  <outline>
    <contour>
      <point x="436" y="93" type="line"/>
      <point x="58" y="93" type="line"/>
      <point x="58" y="67" type="line"/>
      <point x="436" y="67" type="line"/>
    </contour>
  </outline>
</glyph>
<glyph name="zero.old" format="2">
  <advance width="695"/>
  <outline>
    <contour>
      <point x="348" y="-12" type="curve" smooth="yes"/>
      <point x="529" y="-12"/>
      <point x="656" y="108"/>
      <point x="656" y="273" type="curve" smooth="yes"/>
      <point x="656" y="438"/>
      <point x="529" y="558"/>
      <point x="348" y="558" type="curve" smooth="yes"/>
      <point x="167" y="558"/>
      <point x="39" y="438"/>
      <point x="39" y="273" type="curve" smooth="yes"/>
      <point x="39" y="108"/>
      <point x="167" y="-12"/>
    </contour>
    <contour>
      <point x="348" y="18" type="curve" smooth="yes"/>
      <point x="215" y="18"/>
      <point x="141" y="120"/>
      <point x="141" y="273" type="curve" smooth="yes"/>
      <point x="141" y="426"/>
      <point x="215" y="528"/>
      <point x="348" y="528" type="curve" smooth="yes"/>
      <point x="480" y="528"/>
      <point x="554" y="426"/>
      <point x="554" y="273" type="curve" smooth="yes"/>
      <point x="554" y="119"/>
      <point x="480" y="18"/>
    </contour>
  </outline>
</glyph>
